# xmcd CD database file
#
# Track frame offsets:
#	150
#	17855
#	32312
#	48485
#	68372
#	95318
#	112439
#	128752
#	151290
#	167764
#	189218
#
# Disc length: 2831 seconds
#
# Revision: 1
# Processed by: cddbd v1.5.2PL0 Copyright (c) Steve Scherf et al.
# Submitted via: jack 3.1.1
#
DISCID=830b0d0b
DTITLE=Sena Ehrhardt - All In
DYEAR=2013
DGENRE=Blues
TTITLE0=Buried Alive
TTITLE1=Cry To Me
TTITLE2=All In
TTITLE3=I Want To Get You Back
TTITLE4=Cold Cold Feeling
TTITLE5=Live and Learn
TTITLE6=Man Up
TTITLE7=Storm's Coming
TTITLE8=Baby Valentine
TTITLE9=So Excited
TTITLE10=Dreamin' Or Dyin'
EXTD=YEAR: 2013
EXTT0=
EXTT1=
EXTT2=
EXTT3=
EXTT4=
EXTT5=
EXTT6=
EXTT7=
EXTT8=
EXTT9=
EXTT10=
PLAYORDER=
